<?xml version="1.0" standalone="no"?>
<!DOCTYPE svg PUBLIC "-//W3C//DTD SVG 20010904//EN"
 "http://www.w3.org/TR/2001/REC-SVG-20010904/DTD/svg10.dtd">
<svg version="1.0" xmlns="http://www.w3.org/2000/svg"
 width="300.000000pt" height="180.000000pt" viewBox="0 0 300.000000 180.000000"
 preserveAspectRatio="xMidYMid meet">
<metadata>
Created by potrace 1.10, written by Peter Selinger 2001-2011
</metadata>
<g transform="translate(0.000000,180.000000) scale(0.100000,-0.100000)"
fill="#000000" stroke="none">
<path d="M1869 1744 c-19 -20 -87 -77 -151 -127 -123 -94 -152 -129 -70 -81
42 24 45 25 28 5 -20 -22 -20 -22 0 -15 15 6 13 1 -8 -21 -37 -37 -36 -49 3
-41 28 5 30 4 18 -11 -13 -15 -12 -15 9 -4 21 11 33 -1 12 -14 -16 -10 -11
-25 6 -18 10 4 2 -15 -21 -51 -21 -31 -35 -59 -32 -62 9 -10 58 13 92 42 28
24 25 26 -18 9 -16 -7 -15 -1 7 48 20 45 21 55 8 50 -12 -5 -14 -2 -9 11 4 9
3 15 -2 11 -5 -3 -12 -1 -16 4 -3 5 3 15 12 21 17 11 17 11 1 6 -10 -3 -25 -9
-33 -12 -21 -9 -19 9 6 40 18 23 19 25 2 19 -14 -5 -13 -1 7 21 13 14 30 24
38 21 7 -2 11 -1 8 4 -6 10 22 38 43 43 28 6 112 120 99 134 -3 2 -20 -12 -39
-32z"/>
<path d="M1902 1693 c-33 -22 -49 -39 -42 -43 8 -5 2 -15 -17 -29 -78 -61 -80
-62 -37 -39 59 34 165 131 153 142 -2 2 -28 -12 -57 -31z"/>
<path d="M1953 1687 c-25 -17 -43 -39 -43 -50 0 -10 -10 -33 -22 -50 -19 -28
-20 -30 -3 -17 43 33 123 135 114 144 -2 3 -23 -10 -46 -27z"/>
<path d="M1375 1623 c-10 -57 -37 -112 -90 -184 -62 -84 -69 -103 -48 -135 18
-29 26 -24 43 28 6 21 16 41 22 44 6 4 8 -1 4 -14 -4 -11 -4 -33 0 -48 l7 -27
13 29 c7 16 13 22 13 14 1 -13 2 -13 11 0 7 12 10 8 10 -15 0 -29 36 -102 46
-93 2 3 -4 35 -13 72 -22 82 -19 87 75 144 63 38 124 103 110 117 -3 3 -23
-11 -46 -31 -49 -41 -52 -39 -17 12 37 55 30 63 -15 19 -26 -26 -38 -45 -35
-56 4 -11 -3 -23 -16 -33 -13 -9 -24 -14 -26 -13 -1 2 18 41 42 87 24 47 45
91 45 99 0 15 -81 -68 -101 -103 -9 -16 -9 -18 5 -13 35 14 2 -72 -49 -125
-31 -33 -45 -35 -45 -7 0 11 -4 17 -10 14 -5 -3 2 14 18 38 16 28 28 39 30 30
5 -21 26 22 41 84 9 34 9 57 2 76 -14 36 -17 34 -26 -10z"/>
<path d="M1971 1615 c-34 -16 -50 -29 -45 -36 4 -7 -1 -18 -11 -26 -17 -12
-17 -13 -2 -13 9 0 17 3 17 8 0 4 16 16 35 26 36 20 71 53 64 61 -3 2 -29 -7
-58 -20z"/>
<path d="M1967 1558 c-15 -5 -25 -14 -21 -19 3 -5 -7 -14 -21 -21 l-26 -12 33
-13 33 -14 -25 -19 c-19 -15 -21 -20 -8 -20 14 0 15 -4 5 -30 -6 -16 -18 -30
-25 -30 -8 0 -12 -6 -8 -15 3 -8 2 -15 -3 -15 -14 0 -19 -36 -8 -55 22 -39 17
-107 -13 -170 -29 -62 -60 -101 -60 -74 0 8 -8 5 -22 -8 -34 -30 -86 -58 -94
-50 -4 4 -1 19 6 34 14 30 15 30 5 53 -3 9 4 26 17 40 17 18 18 22 5 17 -24
-9 -21 8 6 33 l22 21 -28 -10 c-27 -11 -27 -10 13 43 33 45 37 55 23 58 -14 3
-12 8 12 32 23 22 25 26 8 17 -12 -6 -26 -10 -30 -9 -12 4 -53 -22 -53 -33 0
-6 9 -5 23 2 21 12 21 11 5 -8 -20 -21 -24 -38 -8 -28 20 12 9 -8 -30 -54 -44
-52 -53 -79 -21 -61 25 13 42 13 19 -1 -10 -5 -18 -15 -18 -21 0 -5 8 -7 18
-4 9 4 -1 -10 -23 -29 l-40 -36 33 5 c43 7 33 -10 -22 -36 l-41 -19 39 5 c30
4 37 3 28 -6 -7 -7 -38 -11 -77 -10 -58 2 -67 0 -96 -26 -18 -16 -33 -38 -34
-48 -1 -10 -5 -30 -9 -44 -6 -20 1 -15 36 23 28 32 53 49 70 51 15 2 25 0 23
-5 -6 -8 85 -3 120 7 39 11 85 35 85 44 0 6 4 9 9 8 4 -2 27 12 51 31 69 55
96 149 77 274 -4 30 -2 37 11 37 14 0 14 2 3 9 -11 7 -9 11 8 21 13 7 20 17
17 26 -3 8 1 14 8 14 7 0 19 7 26 15 11 13 8 15 -16 15 l-29 1 36 19 c19 10
42 26 50 36 13 16 10 17 -46 11 -49 -5 -57 -4 -41 6 70 45 77 69 13 45z"/>
<path d="M1540 1424 c-25 -20 -45 -40 -45 -45 0 -5 -4 -13 -10 -17 -5 -4 -19
-18 -30 -32 -11 -14 14 7 55 45 67 62 89 86 78 84 -1 0 -23 -16 -48 -35z"/>
<path d="M1441 1255 c0 -18 25 -104 33 -112 5 -4 5 8 1 27 -8 38 -33 101 -34
85z"/>
<path d="M1270 1248 c0 -4 16 -41 35 -84 41 -90 43 -113 12 -142 -38 -36 -79
-29 -132 21 -33 32 -42 46 -34 54 13 13 -16 73 -40 81 -8 3 -2 -12 14 -32 22
-29 25 -39 15 -51 -25 -31 70 -115 131 -115 11 0 38 14 59 30 39 31 39 31 26
68 -15 42 -85 181 -86 170z"/>
<path d="M998 1212 c-51 -6 -29 -17 37 -17 35 0 61 3 57 7 -10 9 -61 14 -94
10z"/>
<path d="M995 1130 c-4 -6 1 -7 12 -3 14 5 16 3 6 -7 -12 -14 -6 -43 8 -35 4
3 6 12 2 20 -3 9 1 15 8 15 11 0 11 3 -1 10 -19 12 -27 12 -35 0z"/>
<path d="M891 1106 c-7 -8 -45 -16 -103 -21 -110 -8 -202 -35 -243 -71 -22
-19 -25 -24 -10 -19 58 19 72 17 78 -7 18 -64 30 -238 20 -271 -10 -34 -10
-35 19 -39 l29 -5 -6 51 c-3 28 -16 109 -27 179 -11 70 -17 131 -13 135 4 4
10 2 12 -5 3 -7 23 -9 61 -6 31 3 93 0 137 -6 77 -11 80 -11 97 11 23 30 22
40 -2 66 -24 26 -33 27 -49 8z m32 -41 c9 -22 -3 -25 -99 -18 l-89 7 80 12
c44 6 85 12 91 13 7 0 14 -6 17 -14z"/>
<path d="M647 999 c6 -6 9 -19 6 -28 -5 -13 -3 -14 8 -3 7 6 29 12 48 12 19 0
32 3 28 6 -3 3 -22 6 -41 6 -20 0 -36 4 -36 9 0 5 -5 9 -12 9 -9 0 -9 -3 -1
-11z"/>
<path d="M2078 989 c-20 -21 -25 -40 -6 -21 27 27 71 5 48 -23 -9 -11 -9 -15
-1 -15 24 0 24 32 0 55 -23 22 -24 22 -41 4z"/>
<path d="M1040 980 c0 -5 7 -7 15 -3 9 3 23 -1 33 -10 43 -39 115 -67 171 -67
35 0 65 -6 79 -15 21 -15 21 -15 13 7 -8 21 -14 23 -64 20 -66 -4 -116 10
-174 49 -42 29 -73 37 -73 19z"/>
<path d="M673 897 c12 -31 48 -169 52 -199 3 -18 11 -51 19 -73 l14 -40 4 30
c4 28 5 27 21 -20 12 -35 16 -40 12 -17 -2 18 -20 66 -39 107 -19 41 -32 75
-28 75 3 0 19 -12 35 -27 l29 -28 -31 47 c-17 26 -43 72 -56 102 -14 31 -28
56 -31 56 -3 0 -4 -6 -1 -13z"/>
<path d="M1370 861 c0 -23 80 -76 131 -87 77 -18 205 -7 275 22 18 8 48 14 66
15 l33 1 -29 8 c-17 6 -36 5 -47 0 -31 -17 -158 -40 -217 -40 -80 0 -129 16
-170 56 -38 37 -42 39 -42 25z"/>
<path d="M1901 856 c-20 -24 -4 -36 49 -36 26 0 50 -3 52 -8 5 -12 137 -68
203 -87 33 -9 76 -25 97 -36 39 -20 114 -27 103 -9 -3 6 -2 10 3 10 6 0 8 9 5
20 -3 11 -10 20 -15 20 -5 0 -7 -4 -4 -9 4 -5 -9 -5 -30 -1 -40 9 -56 20 -31
20 9 0 17 7 17 14 0 12 -6 13 -30 4 -17 -5 -32 -14 -35 -19 -3 -4 -45 6 -93
22 -100 36 -119 45 -147 69 -11 10 -38 20 -60 23 -22 3 -47 8 -56 11 -9 4 -21
0 -28 -8z"/>
<path d="M799 678 c5 -13 23 -53 40 -90 17 -36 31 -79 31 -95 0 -70 -135 -132
-214 -99 -44 18 -45 23 -5 23 39 0 77 37 84 83 l5 35 -11 -35 c-15 -48 -37
-70 -71 -70 -23 0 -30 5 -34 28 -3 15 -15 32 -28 38 -20 9 -21 8 -21 -27 0
-21 3 -36 6 -33 4 2 6 -4 5 -13 0 -9 15 -27 34 -41 73 -50 232 -7 257 70 14
42 -1 97 -51 196 -27 53 -43 70 -27 30z"/>
<path d="M577 663 c4 -11 3 -14 -5 -9 -7 4 -12 3 -12 -3 0 -14 38 -33 50 -26
16 10 12 22 -15 39 -23 15 -24 15 -18 -1z"/>
<path d="M598 556 c-11 -10 -19 -11 -26 -4 -6 6 -12 6 -16 0 -9 -16 31 -21 51
-7 10 7 15 16 12 20 -4 3 -13 -1 -21 -9z"/>
</g>
</svg>
